<?xml version="1.0" encoding="utf-8"?>
<!-- Generator: Adobe Illustrator 20.0.0, SVG Export Plug-In . SVG Version: 6.00 Build 0)  -->
<svg version="1.1" id="Layer_1" xmlns="http://www.w3.org/2000/svg" xmlns:xlink="http://www.w3.org/1999/xlink" x="0px" y="0px"
	 viewBox="0 0 54 72" style="enable-background:new 0 0 54 72;" xml:space="preserve">
<style type="text/css">
	.st0{fill:#E5E5E5;}
</style>
<g>
	<path class="st0" d="M41.5,32.1v-8.7C41.5,15.5,35,9,27.1,9c-0.1,0-0.1,0-0.3,0c-0.1,0-0.1,0-0.3,0c-8,0-14.4,6.5-14.4,14.4v8.7H7
		V62h39.8V32.1H41.5z M31.4,56.6h-9l2.2-9.6c-1.3-0.8-2.2-2.2-2.2-3.9c0-2.5,2-4.5,4.5-4.5s4.5,2,4.5,4.5c0,1.6-0.9,3.1-2.2,3.9
		L31.4,56.6z M34.3,32.1H19.4v-8.7c0-4,3.2-7.2,7.2-7.2c0.1,0,0.4,0,0.4,0h0.1c4,0,7.2,3.2,7.2,7.2V32.1z"/>
</g>
</svg>
