<?xml version="1.0" encoding="utf-8"?>
<!-- Generator: Adobe Illustrator 20.0.0, SVG Export Plug-In . SVG Version: 6.00 Build 0)  -->
<svg version="1.1" id="Layer_1" xmlns="http://www.w3.org/2000/svg" xmlns:xlink="http://www.w3.org/1999/xlink" x="0px" y="0px"
	 viewBox="0 0 54 72" style="enable-background:new 0 0 54 72;" xml:space="preserve">
<style type="text/css">
	.st0{fill:#E5E5E5;}
</style>
<g>
	<path class="st0" d="M53.9,50.5c0.1-0.3,0.1-0.7,0.1-1v-30c0-0.4-0.1-0.7-0.1-1L36.3,33.6L53.9,50.5z"/>
	<path class="st0" d="M27,37.2l4.6-3.7l2.3-1.9l17.7-15.1c-0.3-0.1-0.6-0.1-0.9-0.1H3.2c-0.3,0-0.6,0.1-0.9,0.1L20,31.5l2.3,1.9
		L27,37.2z"/>
	<path class="st0" d="M50.8,52.7c0.3,0,0.6-0.1,0.9-0.1L33.9,35.5L27,41.1l-6.9-5.6L2.4,52.6c0.3,0.1,0.6,0.1,0.9,0.1H50.8z"/>
	<path class="st0" d="M0.1,18.5c-0.1,0.3-0.1,0.7-0.1,1v30c0,0.4,0.1,0.7,0.1,1l17.6-16.9L0.1,18.5z"/>
</g>
</svg>
